<svg width="79" height="59" viewBox="0 0 79 59" fill="none" xmlns="http://www.w3.org/2000/svg">
<path d="M33.3333 0.000488281C32.9248 4.49396 34.951 13.677 46.3235 14.4613C47.2222 9.64102 45.8824 0.000488281 33.3333 0.000488281Z" fill="#1BC0F5"/>
<path d="M64.9082 3.97959C59.3876 4.93371 49.025 10.3149 51.7391 24.2068C57.8092 23.7356 68.9411 19.0305 64.9082 3.97959Z" fill="#1EA6DE"/>
<path d="M78.693 25.2933C71.8304 23.5259 57.0837 24.349 52.9974 41.7805C60.2429 44.3903 75.5256 44.7466 78.693 25.2933Z" fill="url(#paint0_linear_4007_7831)"/>
<path d="M64.2157 48.5302C54.4118 50.0988 43.3007 48.04 38.9706 46.8145L32.1078 45.3439L18.6274 40.687L15.196 46.3243C21.8627 55.54 34.6405 58.1707 40.1961 58.3341C60.5883 58.5302 67.8105 54.1674 68.8726 51.9615C69.2647 50.0008 65.9314 48.857 64.2157 48.5302Z" fill="#0D902C"/>
<path d="M15.1961 14.9439C7.54903 16.5125 1.87909 16.5779 0 16.4145C2.54902 19.3556 4.65687 24.5028 5.39216 26.7087C7.15687 33.1793 9.88563 38.7185 11.0294 40.6793C18.6765 53.6205 33.8236 57.346 40.4412 57.5911C57.8922 57.7871 66.34 54.078 68.3824 52.1989C68.3824 51.2185 65.9315 49.8296 64.706 49.2577C51.3726 50.2381 41.8301 48.0322 38.7255 46.8067C31.0785 42.6891 27.6961 33.9799 26.9608 30.14C39.7059 27.591 46.9772 36.9211 49.0197 41.9047C51.5687 14.6498 27.5327 12.5746 15.1961 14.9439Z" fill="url(#paint1_linear_4007_7831)"/>
<defs>
<linearGradient id="paint0_linear_4007_7831" x1="67.8921" y1="37.0103" x2="62.2548" y2="28.922" gradientUnits="userSpaceOnUse">
<stop stop-color="#1EA6DE"/>
<stop offset="1" stop-color="#105A78"/>
</linearGradient>
<linearGradient id="paint1_linear_4007_7831" x1="68.1373" y1="52.697" x2="2.53408e-07" y2="16.6675" gradientUnits="userSpaceOnUse">
<stop offset="0.165017" stop-color="#7AD060"/>
<stop offset="0.34057" stop-color="#81C540"/>
<stop offset="0.743632" stop-color="#0A8731"/>
</linearGradient>
</defs>
</svg>
