<svg width="232" height="59" viewBox="0 0 232 59" fill="none" xmlns="http://www.w3.org/2000/svg">
<path d="M33.3333 0.000488281C32.9248 4.49396 34.951 13.677 46.3235 14.4613C47.2222 9.64102 45.8824 0.000488281 33.3333 0.000488281Z" fill="#1BC0F5"/>
<path d="M64.9082 3.97959C59.3876 4.93371 49.025 10.3149 51.7391 24.2068C57.8092 23.7356 68.9411 19.0305 64.9082 3.97959Z" fill="#1EA6DE"/>
<path d="M78.693 25.2933C71.8304 23.5259 57.0837 24.349 52.9974 41.7805C60.2429 44.3903 75.5256 44.7466 78.693 25.2933Z" fill="url(#paint0_linear_4443_200)"/>
<path d="M64.2157 48.5302C54.4118 50.0988 43.3007 48.04 38.9706 46.8145L32.1078 45.3439L18.6274 40.687L15.196 46.3243C21.8627 55.54 34.6405 58.1707 40.1961 58.3341C60.5883 58.5302 67.8105 54.1674 68.8726 51.9615C69.2647 50.0008 65.9314 48.857 64.2157 48.5302Z" fill="#0D902C"/>
<path d="M15.1961 14.9439C7.54903 16.5125 1.87909 16.5779 0 16.4145C2.54902 19.3556 4.65687 24.5028 5.39216 26.7087C7.15687 33.1793 9.88563 38.7185 11.0294 40.6793C18.6765 53.6205 33.8236 57.346 40.4412 57.5911C57.8922 57.7871 66.34 54.078 68.3824 52.1989C68.3824 51.2185 65.9315 49.8296 64.706 49.2577C51.3726 50.2381 41.8301 48.0322 38.7255 46.8067C31.0785 42.6891 27.6961 33.9799 26.9608 30.14C39.7059 27.591 46.9772 36.9211 49.0197 41.9047C51.5687 14.6498 27.5327 12.5746 15.1961 14.9439Z" fill="url(#paint1_linear_4443_200)"/>
<path d="M103.985 47.7103L105.965 42.1663H107.225L105.245 47.7103H103.985ZM103.973 50.6863V47.7103H105.245V50.6863H103.973ZM103.973 47.7103L101.993 42.1663H103.445L105.245 47.7103H103.973ZM111.016 48.3583V46.8943H112.408V48.3583H111.016ZM107.596 48.3583V46.8943H108.988V48.3583H107.596ZM109.96 45.5143V44.3863H110.056V45.5143H109.96ZM109.96 50.8663V49.7263H110.056V50.8663H109.96ZM107.596 46.9063C107.596 46.4183 107.7 45.9863 107.908 45.6103C108.116 45.2343 108.4 44.9383 108.76 44.7223C109.12 44.4983 109.524 44.3863 109.972 44.3863V45.5143C109.668 45.5143 109.428 45.6383 109.252 45.8863C109.076 46.1263 108.988 46.4663 108.988 46.9063H107.596ZM112.408 46.9063H111.016C111.016 46.4663 110.928 46.1263 110.752 45.8863C110.584 45.6383 110.344 45.5143 110.032 45.5143V44.3863C110.488 44.3863 110.892 44.4983 111.244 44.7223C111.604 44.9383 111.888 45.2343 112.096 45.6103C112.304 45.9863 112.408 46.4183 112.408 46.9063ZM107.596 48.3463H108.988C108.988 48.7783 109.076 49.1183 109.252 49.3663C109.428 49.6063 109.668 49.7263 109.972 49.7263V50.8663C109.524 50.8663 109.12 50.7583 108.76 50.5423C108.4 50.3183 108.116 50.0183 107.908 49.6423C107.7 49.2583 107.596 48.8263 107.596 48.3463ZM112.408 48.3463C112.408 48.8263 112.304 49.2583 112.096 49.6423C111.888 50.0183 111.604 50.3183 111.244 50.5423C110.892 50.7583 110.488 50.8663 110.032 50.8663V49.7263C110.344 49.7263 110.584 49.6063 110.752 49.3663C110.928 49.1183 111.016 48.7783 111.016 48.3463H112.408ZM118.13 44.5663V50.6863H116.738V44.5663H118.13ZM114.698 44.5663V48.6223H113.306V44.5663H114.698ZM114.698 48.6223C114.698 48.9503 114.79 49.2143 114.974 49.4143C115.158 49.6143 115.394 49.7143 115.682 49.7143L115.298 50.8663C114.922 50.8663 114.582 50.7703 114.278 50.5783C113.982 50.3783 113.746 50.1103 113.57 49.7743C113.394 49.4303 113.306 49.0463 113.306 48.6223H114.698ZM117.242 48.5623C117.242 49.0023 117.158 49.3983 116.99 49.7503C116.822 50.0943 116.59 50.3663 116.294 50.5663C115.998 50.7663 115.666 50.8663 115.298 50.8663L115.682 49.7143C115.994 49.7143 116.246 49.6103 116.438 49.4023C116.638 49.1863 116.738 48.9063 116.738 48.5623H117.242ZM119.568 50.6863V44.5663H120.96V50.6863H119.568ZM120.456 46.7143C120.456 46.2743 120.524 45.8823 120.66 45.5383C120.796 45.1863 120.98 44.9103 121.212 44.7103C121.444 44.5103 121.708 44.4103 122.004 44.4103L121.86 45.6823C121.596 45.6823 121.38 45.7823 121.212 45.9823C121.044 46.1743 120.96 46.4183 120.96 46.7143H120.456ZM122.592 45.9703C122.488 45.8823 122.368 45.8143 122.232 45.7663C122.104 45.7103 121.98 45.6823 121.86 45.6823L122.004 44.4103C122.196 44.4103 122.38 44.4503 122.556 44.5303C122.74 44.6023 122.904 44.7023 123.048 44.8303L122.592 45.9703ZM126.294 50.6863V44.5663H127.686V50.6863H126.294ZM129.726 50.6863V46.6183H131.118V50.6863H129.726ZM129.726 46.6303C129.726 46.2943 129.634 46.0263 129.45 45.8263C129.266 45.6263 129.03 45.5263 128.742 45.5263L129.126 44.3743C129.502 44.3743 129.838 44.4743 130.134 44.6743C130.438 44.8663 130.678 45.1343 130.854 45.4783C131.03 45.8143 131.118 46.1983 131.118 46.6303H129.726ZM127.182 46.6903C127.182 46.2503 127.266 45.8543 127.434 45.5023C127.61 45.1503 127.842 44.8743 128.13 44.6743C128.426 44.4743 128.758 44.3743 129.126 44.3743L128.742 45.5263C128.43 45.5263 128.174 45.6343 127.974 45.8503C127.782 46.0583 127.686 46.3383 127.686 46.6903H127.182ZM126.294 50.6863V41.9743H127.686V50.6863H126.294ZM135.558 50.6863V46.6183H136.95V50.6863H135.558ZM134.118 50.8663L134.298 49.7863C134.554 49.7863 134.774 49.7223 134.958 49.5943C135.15 49.4583 135.298 49.2663 135.402 49.0183C135.506 48.7703 135.558 48.4783 135.558 48.1423L136.182 48.0823C136.182 48.6183 136.09 49.0983 135.906 49.5223C135.722 49.9383 135.474 50.2663 135.162 50.5063C134.858 50.7463 134.51 50.8663 134.118 50.8663ZM134.118 50.8663C133.742 50.8663 133.402 50.7823 133.098 50.6143C132.802 50.4463 132.566 50.2183 132.39 49.9303C132.222 49.6343 132.138 49.3023 132.138 48.9343L133.41 48.8743C133.41 49.1383 133.498 49.3583 133.674 49.5343C133.858 49.7023 134.066 49.7863 134.298 49.7863L134.118 50.8663ZM132.138 48.9343C132.138 48.5663 132.234 48.2383 132.426 47.9503C132.626 47.6623 132.894 47.4343 133.23 47.2663C133.566 47.0903 133.942 47.0023 134.358 47.0023L134.478 47.9623C134.166 47.9623 133.91 48.0463 133.71 48.2143C133.51 48.3823 133.41 48.6023 133.41 48.8743L132.138 48.9343ZM134.478 47.9623L134.358 47.0023H136.062V47.9623H134.478ZM135.558 48.1423V46.6783H136.182V48.0823L135.558 48.1423ZM136.95 46.6903H135.558C135.558 46.3383 135.462 46.0543 135.27 45.8383C135.086 45.6223 134.846 45.5143 134.55 45.5143V44.3743C135.006 44.3743 135.414 44.4743 135.774 44.6743C136.142 44.8743 136.43 45.1503 136.638 45.5023C136.846 45.8543 136.95 46.2503 136.95 46.6903ZM133.542 46.5223L132.282 46.2823C132.346 45.8983 132.478 45.5663 132.678 45.2863C132.886 44.9983 133.15 44.7743 133.47 44.6143C133.798 44.4543 134.158 44.3743 134.55 44.3743V45.5143C134.294 45.5143 134.07 45.5983 133.878 45.7663C133.694 45.9343 133.582 46.1863 133.542 46.5223ZM138.154 50.6623H139.546V53.0863H138.154V50.6623ZM139.546 44.5663V50.6863H138.154V44.5663H139.546ZM142.978 46.6303V48.6223H141.586V46.6303H142.978ZM141.586 48.6223H142.978C142.978 49.0463 142.89 49.4303 142.714 49.7743C142.538 50.1103 142.298 50.3783 141.994 50.5783C141.698 50.7703 141.362 50.8663 140.986 50.8663L140.602 49.7143C140.89 49.7143 141.126 49.6143 141.31 49.4143C141.494 49.2143 141.586 48.9503 141.586 48.6223ZM139.042 48.5623H139.546C139.546 48.9063 139.642 49.1863 139.834 49.4023C140.034 49.6103 140.29 49.7143 140.602 49.7143L140.986 50.8663C140.618 50.8663 140.286 50.7663 139.99 50.5663C139.702 50.3663 139.47 50.0943 139.294 49.7503C139.126 49.3983 139.042 49.0023 139.042 48.5623ZM141.586 46.6303C141.586 46.2943 141.494 46.0263 141.31 45.8263C141.126 45.6263 140.89 45.5263 140.602 45.5263L140.986 44.3743C141.362 44.3743 141.698 44.4743 141.994 44.6743C142.298 44.8663 142.538 45.1343 142.714 45.4783C142.89 45.8143 142.978 46.1983 142.978 46.6303H141.586ZM139.042 46.6903C139.042 46.2503 139.126 45.8543 139.294 45.5023C139.47 45.1503 139.702 44.8743 139.99 44.6743C140.286 44.4743 140.618 44.3743 140.986 44.3743L140.602 45.5263C140.29 45.5263 140.034 45.6343 139.834 45.8503C139.642 46.0583 139.546 46.3383 139.546 46.6903H139.042ZM144.177 50.6623H145.569V53.0863H144.177V50.6623ZM145.569 44.5663V50.6863H144.177V44.5663H145.569ZM149.001 46.6303V48.6223H147.609V46.6303H149.001ZM147.609 48.6223H149.001C149.001 49.0463 148.913 49.4303 148.737 49.7743C148.561 50.1103 148.321 50.3783 148.017 50.5783C147.721 50.7703 147.385 50.8663 147.009 50.8663L146.625 49.7143C146.913 49.7143 147.149 49.6143 147.333 49.4143C147.517 49.2143 147.609 48.9503 147.609 48.6223ZM145.065 48.5623H145.569C145.569 48.9063 145.665 49.1863 145.857 49.4023C146.057 49.6103 146.313 49.7143 146.625 49.7143L147.009 50.8663C146.641 50.8663 146.309 50.7663 146.013 50.5663C145.725 50.3663 145.493 50.0943 145.317 49.7503C145.149 49.3983 145.065 49.0023 145.065 48.5623ZM147.609 46.6303C147.609 46.2943 147.517 46.0263 147.333 45.8263C147.149 45.6263 146.913 45.5263 146.625 45.5263L147.009 44.3743C147.385 44.3743 147.721 44.4743 148.017 44.6743C148.321 44.8663 148.561 45.1343 148.737 45.4783C148.913 45.8143 149.001 46.1983 149.001 46.6303H147.609ZM145.065 46.6903C145.065 46.2503 145.149 45.8543 145.317 45.5023C145.493 45.1503 145.725 44.8743 146.013 44.6743C146.309 44.4743 146.641 44.3743 147.009 44.3743L146.625 45.5263C146.313 45.5263 146.057 45.6343 145.857 45.8503C145.665 46.0583 145.569 46.3383 145.569 46.6903H145.065ZM150.32 50.6863V44.5663H151.712V50.6863H150.32ZM151.016 43.7503C150.776 43.7503 150.576 43.6743 150.416 43.5223C150.264 43.3623 150.188 43.1623 150.188 42.9223C150.188 42.6823 150.264 42.4823 150.416 42.3223C150.576 42.1543 150.776 42.0703 151.016 42.0703C151.256 42.0703 151.456 42.1543 151.616 42.3223C151.784 42.4823 151.868 42.6823 151.868 42.9223C151.868 43.1623 151.784 43.3623 151.616 43.5223C151.456 43.6743 151.256 43.7503 151.016 43.7503ZM153.271 50.6863V44.5663H154.663V50.6863H153.271ZM156.703 50.6863V46.6183H158.095V50.6863H156.703ZM156.703 46.6303C156.703 46.2943 156.611 46.0263 156.427 45.8263C156.243 45.6263 156.007 45.5263 155.719 45.5263L156.103 44.3743C156.479 44.3743 156.815 44.4743 157.111 44.6743C157.415 44.8663 157.655 45.1343 157.831 45.4783C158.007 45.8143 158.095 46.1983 158.095 46.6303H156.703ZM154.159 46.6903C154.159 46.2503 154.243 45.8543 154.411 45.5023C154.587 45.1503 154.819 44.8743 155.107 44.6743C155.403 44.4743 155.735 44.3743 156.103 44.3743L155.719 45.5263C155.407 45.5263 155.151 45.6343 154.951 45.8503C154.759 46.0583 154.663 46.3383 154.663 46.6903H154.159ZM159.606 48.0103V47.1223H163.77V48.0103H159.606ZM161.37 50.8783V49.7383H161.454V50.8783H161.37ZM158.994 48.3583V46.8943H160.386V48.3583H158.994ZM162.378 47.1223V46.6783H163.77V47.1223H162.378ZM163.77 46.6903H162.378C162.378 46.3383 162.282 46.0543 162.09 45.8383C161.906 45.6223 161.666 45.5143 161.37 45.5143V44.3743C161.826 44.3743 162.234 44.4743 162.594 44.6743C162.962 44.8743 163.25 45.1503 163.458 45.5023C163.666 45.8543 163.77 46.2503 163.77 46.6903ZM162.462 48.7303L163.71 48.9703C163.654 49.3463 163.522 49.6783 163.314 49.9663C163.114 50.2543 162.854 50.4783 162.534 50.6383C162.214 50.7983 161.85 50.8783 161.442 50.8783V49.7383C161.706 49.7383 161.93 49.6543 162.114 49.4863C162.306 49.3103 162.422 49.0583 162.462 48.7303ZM158.994 46.8943C158.994 46.4143 159.098 45.9863 159.306 45.6103C159.514 45.2263 159.798 44.9263 160.158 44.7103C160.518 44.4863 160.922 44.3743 161.37 44.3743V45.5143C161.066 45.5143 160.826 45.6343 160.65 45.8743C160.474 46.1143 160.386 46.4543 160.386 46.8943H158.994ZM158.994 48.3583H160.386C160.386 48.7903 160.474 49.1303 160.65 49.3783C160.826 49.6183 161.066 49.7383 161.37 49.7383V50.8783C160.922 50.8783 160.518 50.7703 160.158 50.5543C159.798 50.3303 159.514 50.0303 159.306 49.6543C159.098 49.2703 158.994 48.8383 158.994 48.3583ZM167.717 49.0663C167.717 48.8903 167.645 48.7423 167.501 48.6223C167.357 48.5023 167.169 48.3903 166.937 48.2863C166.705 48.1823 166.461 48.0783 166.205 47.9743C165.949 47.8623 165.705 47.7303 165.473 47.5783C165.249 47.4263 165.061 47.2383 164.909 47.0143C164.765 46.7903 164.693 46.5143 164.693 46.1863C164.693 46.1863 164.737 46.1863 164.825 46.1863C164.921 46.1863 165.033 46.1863 165.161 46.1863C165.297 46.1863 165.429 46.1863 165.557 46.1863C165.693 46.1863 165.805 46.1863 165.893 46.1863C165.981 46.1863 166.025 46.1863 166.025 46.1863C166.025 46.3623 166.097 46.5103 166.241 46.6303C166.393 46.7503 166.581 46.8623 166.805 46.9663C167.037 47.0623 167.281 47.1663 167.537 47.2783C167.793 47.3823 168.037 47.5103 168.269 47.6623C168.501 47.8143 168.689 48.0023 168.833 48.2263C168.977 48.4503 169.049 48.7303 169.049 49.0663C169.049 49.0663 169.005 49.0663 168.917 49.0663C168.829 49.0663 168.717 49.0663 168.581 49.0663C168.453 49.0663 168.321 49.0663 168.185 49.0663C168.057 49.0663 167.945 49.0663 167.849 49.0663C167.761 49.0663 167.717 49.0663 167.717 49.0663ZM166.817 50.8663V49.7383C167.081 49.7383 167.297 49.6743 167.465 49.5463C167.633 49.4183 167.717 49.2583 167.717 49.0663H169.049C169.049 49.4263 168.957 49.7423 168.773 50.0143C168.589 50.2863 168.329 50.4983 167.993 50.6503C167.657 50.7943 167.265 50.8663 166.817 50.8663ZM164.693 46.1863C164.693 45.8343 164.785 45.5223 164.969 45.2503C165.153 44.9783 165.401 44.7663 165.713 44.6143C166.033 44.4543 166.393 44.3743 166.793 44.3743V45.5023C166.577 45.5023 166.393 45.5663 166.241 45.6943C166.097 45.8223 166.025 45.9863 166.025 46.1863H164.693ZM165.809 48.7183C165.849 49.0543 165.961 49.3103 166.145 49.4863C166.337 49.6543 166.561 49.7383 166.817 49.7383V50.8663C166.425 50.8663 166.065 50.7903 165.737 50.6383C165.417 50.4783 165.153 50.2543 164.945 49.9663C164.745 49.6783 164.613 49.3423 164.549 48.9583L165.809 48.7183ZM167.801 46.5223C167.761 46.1783 167.645 45.9223 167.453 45.7543C167.269 45.5863 167.045 45.5023 166.781 45.5023V44.3743C167.189 44.3743 167.553 44.4543 167.873 44.6143C168.193 44.7663 168.453 44.9863 168.653 45.2743C168.861 45.5543 168.993 45.8903 169.049 46.2823L167.801 46.5223ZM173.014 49.0663C173.014 48.8903 172.942 48.7423 172.798 48.6223C172.654 48.5023 172.466 48.3903 172.234 48.2863C172.002 48.1823 171.758 48.0783 171.502 47.9743C171.246 47.8623 171.002 47.7303 170.77 47.5783C170.546 47.4263 170.358 47.2383 170.206 47.0143C170.062 46.7903 169.99 46.5143 169.99 46.1863C169.99 46.1863 170.034 46.1863 170.122 46.1863C170.218 46.1863 170.33 46.1863 170.458 46.1863C170.594 46.1863 170.726 46.1863 170.854 46.1863C170.99 46.1863 171.102 46.1863 171.19 46.1863C171.278 46.1863 171.322 46.1863 171.322 46.1863C171.322 46.3623 171.394 46.5103 171.538 46.6303C171.69 46.7503 171.878 46.8623 172.102 46.9663C172.334 47.0623 172.578 47.1663 172.834 47.2783C173.09 47.3823 173.334 47.5103 173.566 47.6623C173.798 47.8143 173.986 48.0023 174.13 48.2263C174.274 48.4503 174.346 48.7303 174.346 49.0663C174.346 49.0663 174.302 49.0663 174.214 49.0663C174.126 49.0663 174.014 49.0663 173.878 49.0663C173.75 49.0663 173.618 49.0663 173.482 49.0663C173.354 49.0663 173.242 49.0663 173.146 49.0663C173.058 49.0663 173.014 49.0663 173.014 49.0663ZM172.114 50.8663V49.7383C172.378 49.7383 172.594 49.6743 172.762 49.5463C172.93 49.4183 173.014 49.2583 173.014 49.0663H174.346C174.346 49.4263 174.254 49.7423 174.07 50.0143C173.886 50.2863 173.626 50.4983 173.29 50.6503C172.954 50.7943 172.562 50.8663 172.114 50.8663ZM169.99 46.1863C169.99 45.8343 170.082 45.5223 170.266 45.2503C170.45 44.9783 170.698 44.7663 171.01 44.6143C171.33 44.4543 171.69 44.3743 172.09 44.3743V45.5023C171.874 45.5023 171.69 45.5663 171.538 45.6943C171.394 45.8223 171.322 45.9863 171.322 46.1863H169.99ZM171.106 48.7183C171.146 49.0543 171.258 49.3103 171.442 49.4863C171.634 49.6543 171.858 49.7383 172.114 49.7383V50.8663C171.722 50.8663 171.362 50.7903 171.034 50.6383C170.714 50.4783 170.45 50.2543 170.242 49.9663C170.042 49.6783 169.91 49.3423 169.846 48.9583L171.106 48.7183ZM173.098 46.5223C173.058 46.1783 172.942 45.9223 172.75 45.7543C172.566 45.5863 172.342 45.5023 172.078 45.5023V44.3743C172.486 44.3743 172.85 44.4543 173.17 44.6143C173.49 44.7663 173.75 44.9863 173.95 45.2743C174.158 45.5543 174.29 45.8903 174.346 46.2823L173.098 46.5223ZM176.209 50.7823C175.969 50.7823 175.769 50.7063 175.609 50.5543C175.457 50.3943 175.381 50.1943 175.381 49.9543C175.381 49.7143 175.457 49.5143 175.609 49.3543C175.769 49.1863 175.969 49.1023 176.209 49.1023C176.449 49.1023 176.649 49.1863 176.809 49.3543C176.977 49.5143 177.061 49.7143 177.061 49.9543C177.061 50.1943 176.977 50.3943 176.809 50.5543C176.649 50.7063 176.449 50.7823 176.209 50.7823ZM183.848 48.3583V46.8943H185.24V48.3583H183.848ZM180.428 48.3583V46.8943H181.82V48.3583H180.428ZM182.792 45.5143V44.3863H182.888V45.5143H182.792ZM182.792 50.8663V49.7263H182.888V50.8663H182.792ZM180.428 46.9063C180.428 46.4183 180.532 45.9863 180.74 45.6103C180.948 45.2343 181.232 44.9383 181.592 44.7223C181.952 44.4983 182.356 44.3863 182.804 44.3863V45.5143C182.5 45.5143 182.26 45.6383 182.084 45.8863C181.908 46.1263 181.82 46.4663 181.82 46.9063H180.428ZM185.24 46.9063H183.848C183.848 46.4663 183.76 46.1263 183.584 45.8863C183.416 45.6383 183.176 45.5143 182.864 45.5143V44.3863C183.32 44.3863 183.724 44.4983 184.076 44.7223C184.436 44.9383 184.72 45.2343 184.928 45.6103C185.136 45.9863 185.24 46.4183 185.24 46.9063ZM180.428 48.3463H181.82C181.82 48.7783 181.908 49.1183 182.084 49.3663C182.26 49.6063 182.5 49.7263 182.804 49.7263V50.8663C182.356 50.8663 181.952 50.7583 181.592 50.5423C181.232 50.3183 180.948 50.0183 180.74 49.6423C180.532 49.2583 180.428 48.8263 180.428 48.3463ZM185.24 48.3463C185.24 48.8263 185.136 49.2583 184.928 49.6423C184.72 50.0183 184.436 50.3183 184.076 50.5423C183.724 50.7583 183.32 50.8663 182.864 50.8663V49.7263C183.176 49.7263 183.416 49.6063 183.584 49.3663C183.76 49.1183 183.848 48.7783 183.848 48.3463H185.24ZM190.962 44.5663V50.6863H189.57V44.5663H190.962ZM187.53 44.5663V48.6223H186.138V44.5663H187.53ZM187.53 48.6223C187.53 48.9503 187.622 49.2143 187.806 49.4143C187.99 49.6143 188.226 49.7143 188.514 49.7143L188.13 50.8663C187.754 50.8663 187.414 50.7703 187.11 50.5783C186.814 50.3783 186.578 50.1103 186.402 49.7743C186.226 49.4303 186.138 49.0463 186.138 48.6223H187.53ZM190.074 48.5623C190.074 49.0023 189.99 49.3983 189.822 49.7503C189.654 50.0943 189.422 50.3663 189.126 50.5663C188.83 50.7663 188.498 50.8663 188.13 50.8663L188.514 49.7143C188.826 49.7143 189.078 49.6103 189.27 49.4023C189.47 49.1863 189.57 48.9063 189.57 48.5623H190.074ZM192.4 50.6863V44.5663H193.792V50.6863H192.4ZM193.288 46.7143C193.288 46.2743 193.356 45.8823 193.492 45.5383C193.628 45.1863 193.812 44.9103 194.044 44.7103C194.276 44.5103 194.54 44.4103 194.836 44.4103L194.692 45.6823C194.428 45.6823 194.212 45.7823 194.044 45.9823C193.876 46.1743 193.792 46.4183 193.792 46.7143H193.288ZM195.424 45.9703C195.32 45.8823 195.2 45.8143 195.064 45.7663C194.936 45.7103 194.812 45.6823 194.692 45.6823L194.836 44.4103C195.028 44.4103 195.212 44.4503 195.388 44.5303C195.572 44.6023 195.736 44.7023 195.88 44.8303L195.424 45.9703ZM199.126 50.6623H200.518V53.0863H199.126V50.6623ZM200.518 44.5663V50.6863H199.126V44.5663H200.518ZM203.95 46.6303V48.6223H202.558V46.6303H203.95ZM202.558 48.6223H203.95C203.95 49.0463 203.862 49.4303 203.686 49.7743C203.51 50.1103 203.27 50.3783 202.966 50.5783C202.67 50.7703 202.334 50.8663 201.958 50.8663L201.574 49.7143C201.862 49.7143 202.098 49.6143 202.282 49.4143C202.466 49.2143 202.558 48.9503 202.558 48.6223ZM200.014 48.5623H200.518C200.518 48.9063 200.614 49.1863 200.806 49.4023C201.006 49.6103 201.262 49.7143 201.574 49.7143L201.958 50.8663C201.59 50.8663 201.258 50.7663 200.962 50.5663C200.674 50.3663 200.442 50.0943 200.266 49.7503C200.098 49.3983 200.014 49.0023 200.014 48.5623ZM202.558 46.6303C202.558 46.2943 202.466 46.0263 202.282 45.8263C202.098 45.6263 201.862 45.5263 201.574 45.5263L201.958 44.3743C202.334 44.3743 202.67 44.4743 202.966 44.6743C203.27 44.8663 203.51 45.1343 203.686 45.4783C203.862 45.8143 203.95 46.1983 203.95 46.6303H202.558ZM200.014 46.6903C200.014 46.2503 200.098 45.8543 200.266 45.5023C200.442 45.1503 200.674 44.8743 200.962 44.6743C201.258 44.4743 201.59 44.3743 201.958 44.3743L201.574 45.5263C201.262 45.5263 201.006 45.6343 200.806 45.8503C200.614 46.0583 200.518 46.3383 200.518 46.6903H200.014ZM205.15 50.6863V44.5663H206.542V50.6863H205.15ZM206.038 46.7143C206.038 46.2743 206.106 45.8823 206.242 45.5383C206.378 45.1863 206.562 44.9103 206.794 44.7103C207.026 44.5103 207.29 44.4103 207.586 44.4103L207.442 45.6823C207.178 45.6823 206.962 45.7823 206.794 45.9823C206.626 46.1743 206.542 46.4183 206.542 46.7143H206.038ZM208.174 45.9703C208.07 45.8823 207.95 45.8143 207.814 45.7663C207.686 45.7103 207.562 45.6823 207.442 45.6823L207.586 44.4103C207.778 44.4103 207.962 44.4503 208.138 44.5303C208.322 44.6023 208.486 44.7023 208.63 44.8303L208.174 45.9703ZM209.559 50.6863V44.5663H210.951V50.6863H209.559ZM210.255 43.7503C210.015 43.7503 209.815 43.6743 209.655 43.5223C209.503 43.3623 209.427 43.1623 209.427 42.9223C209.427 42.6823 209.503 42.4823 209.655 42.3223C209.815 42.1543 210.015 42.0703 210.255 42.0703C210.495 42.0703 210.695 42.1543 210.855 42.3223C211.023 42.4823 211.107 42.6823 211.107 42.9223C211.107 43.1623 211.023 43.3623 210.855 43.5223C210.695 43.6743 210.495 43.7503 210.255 43.7503ZM217.094 44.5783H215.702V42.1663H217.094V44.5783ZM215.702 50.6863V44.5663H217.094V50.6863H215.702ZM212.27 48.6223V46.6303H213.662V48.6223H212.27ZM213.662 46.6303H212.27C212.27 46.1983 212.358 45.8143 212.534 45.4783C212.71 45.1343 212.946 44.8663 213.242 44.6743C213.546 44.4743 213.886 44.3743 214.262 44.3743L214.646 45.5263C214.358 45.5263 214.122 45.6263 213.938 45.8263C213.754 46.0263 213.662 46.2943 213.662 46.6303ZM216.206 46.6903H215.702C215.702 46.3383 215.602 46.0583 215.402 45.8503C215.21 45.6343 214.958 45.5263 214.646 45.5263L214.262 44.3743C214.63 44.3743 214.962 44.4743 215.258 44.6743C215.554 44.8743 215.786 45.1503 215.954 45.5023C216.122 45.8543 216.206 46.2503 216.206 46.6903ZM213.662 48.6223C213.662 48.9503 213.754 49.2143 213.938 49.4143C214.122 49.6143 214.358 49.7143 214.646 49.7143L214.262 50.8663C213.886 50.8663 213.546 50.7703 213.242 50.5783C212.946 50.3783 212.71 50.1103 212.534 49.7743C212.358 49.4303 212.27 49.0463 212.27 48.6223H213.662ZM216.206 48.5623C216.206 49.0023 216.122 49.3983 215.954 49.7503C215.786 50.0943 215.554 50.3663 215.258 50.5663C214.962 50.7663 214.63 50.8663 214.262 50.8663L214.646 49.7143C214.958 49.7143 215.21 49.6103 215.402 49.4023C215.602 49.1863 215.702 48.9063 215.702 48.5623H216.206ZM218.786 48.0103V47.1223H222.95V48.0103H218.786ZM220.55 50.8783V49.7383H220.634V50.8783H220.55ZM218.174 48.3583V46.8943H219.566V48.3583H218.174ZM221.558 47.1223V46.6783H222.95V47.1223H221.558ZM222.95 46.6903H221.558C221.558 46.3383 221.462 46.0543 221.27 45.8383C221.086 45.6223 220.846 45.5143 220.55 45.5143V44.3743C221.006 44.3743 221.414 44.4743 221.774 44.6743C222.142 44.8743 222.43 45.1503 222.638 45.5023C222.846 45.8543 222.95 46.2503 222.95 46.6903ZM221.642 48.7303L222.89 48.9703C222.834 49.3463 222.702 49.6783 222.494 49.9663C222.294 50.2543 222.034 50.4783 221.714 50.6383C221.394 50.7983 221.03 50.8783 220.622 50.8783V49.7383C220.886 49.7383 221.11 49.6543 221.294 49.4863C221.486 49.3103 221.602 49.0583 221.642 48.7303ZM218.174 46.8943C218.174 46.4143 218.278 45.9863 218.486 45.6103C218.694 45.2263 218.978 44.9263 219.338 44.7103C219.698 44.4863 220.102 44.3743 220.55 44.3743V45.5143C220.246 45.5143 220.006 45.6343 219.83 45.8743C219.654 46.1143 219.566 46.4543 219.566 46.8943H218.174ZM218.174 48.3583H219.566C219.566 48.7903 219.654 49.1303 219.83 49.3783C220.006 49.6183 220.246 49.7383 220.55 49.7383V50.8783C220.102 50.8783 219.698 50.7703 219.338 50.5543C218.978 50.3303 218.694 50.0303 218.486 49.6543C218.278 49.2703 218.174 48.8383 218.174 48.3583Z" fill="#1EA6DE"/>
<path d="M92 27.5967V15.7758H94.9563V27.5967H92ZM92 15.7758C92 14.5818 92.2707 13.5289 92.8122 12.6171C93.3536 11.6836 94.1116 10.9671 95.0862 10.4678C96.0608 9.94679 97.1762 9.68628 98.4324 9.68628V12.2589C97.3495 12.2589 96.494 12.5628 95.8659 13.1707C95.2595 13.7785 94.9563 14.6469 94.9563 15.7758H92ZM92 27.5642H94.9563C94.9563 28.6931 95.2595 29.5723 95.8659 30.2019C96.494 30.8098 97.3495 31.1137 98.4324 31.1137V33.6863C97.1762 33.6863 96.0608 33.4258 95.0862 32.9047C94.1116 32.3837 93.3536 31.6673 92.8122 30.7555C92.2707 29.8437 92 28.7799 92 27.5642ZM102.298 16.6225C102.168 15.2548 101.757 14.191 101.064 13.4312C100.392 12.6496 99.5044 12.2589 98.3999 12.2589V9.68628C100.241 9.68628 101.735 10.2507 102.883 11.3796C104.053 12.5085 104.756 14.0716 104.995 16.0689L102.298 16.6225ZM102.298 26.7501L104.995 27.2711C104.756 29.2901 104.053 30.864 102.883 31.9929C101.735 33.1218 100.241 33.6863 98.3999 33.6863V31.1137C99.5044 31.1137 100.392 30.7338 101.064 29.9739C101.757 29.1924 102.168 28.1178 102.298 26.7501Z" fill="url(#paint2_linear_4443_200)"/>
<path d="M115.96 33.1652V21.9631H118.916V33.1652H115.96ZM111.997 33.6537L112.224 31.2114C113.004 31.2114 113.664 31.016 114.206 30.6252C114.769 30.2344 115.202 29.6591 115.505 28.8993C115.809 28.1395 115.96 27.2385 115.96 26.1965L117.422 26.1313C117.422 27.6076 117.184 28.9102 116.707 30.0391C116.231 31.168 115.581 32.0581 114.758 32.7093C113.957 33.3389 113.036 33.6537 111.997 33.6537ZM111.997 33.6537C111.022 33.6537 110.134 33.4258 109.333 32.9699C108.532 32.514 107.893 31.8952 107.416 31.1137C106.94 30.3104 106.701 29.4203 106.701 28.4434L109.495 28.3457C109.495 29.1707 109.766 29.8545 110.308 30.3973C110.871 30.94 111.51 31.2114 112.224 31.2114L111.997 33.6537ZM106.701 28.4434C106.701 27.4231 106.951 26.533 107.449 25.7731C107.968 24.9916 108.662 24.3728 109.528 23.9169C110.394 23.461 111.38 23.2331 112.484 23.2331L112.647 25.5126C111.737 25.5126 110.979 25.784 110.372 26.3267C109.788 26.8477 109.495 27.5207 109.495 28.3457L106.701 28.4434ZM112.647 25.5126L112.484 23.2331H117.487V25.5126H112.647ZM115.96 26.1965V21.9956H117.422V26.1313L115.96 26.1965ZM118.916 22.0282H115.96C115.96 21.073 115.668 20.2914 115.083 19.6836C114.52 19.0757 113.784 18.7718 112.874 18.7718V16.2317C114.043 16.2317 115.072 16.4814 115.96 16.9807C116.87 17.48 117.585 18.1747 118.104 19.0648C118.646 19.9332 118.916 20.921 118.916 22.0282ZM109.82 21.6374L107.091 21.0838C107.221 20.1069 107.546 19.2602 108.066 18.5438C108.607 17.8274 109.29 17.2629 110.113 16.8505C110.957 16.438 111.889 16.2317 112.906 16.2317V18.7718C112.105 18.7718 111.412 19.0106 110.827 19.4882C110.264 19.9441 109.928 20.6605 109.82 21.6374Z" fill="url(#paint3_linear_4443_200)"/>
<path d="M121.577 33.1652V16.7202H124.533V33.1652H121.577ZM123.201 22.1585C123.201 21.0513 123.385 20.0635 123.753 19.1951C124.122 18.305 124.62 17.6103 125.248 17.111C125.898 16.6117 126.612 16.362 127.392 16.362L127.132 19.13C126.374 19.13 125.746 19.4231 125.248 20.0092C124.771 20.5737 124.533 21.2901 124.533 22.1585H123.201ZM129.081 19.879C128.821 19.6619 128.507 19.4882 128.139 19.3579C127.793 19.206 127.457 19.13 127.132 19.13L127.392 16.362C127.89 16.362 128.377 16.4597 128.854 16.6551C129.33 16.8287 129.742 17.0784 130.088 17.4041L129.081 19.879Z" fill="url(#paint4_linear_4443_200)"/>
<path d="M130.924 25.8382V23.7216H142.002V25.8382H130.924ZM135.959 33.6863V31.1137H136.121V33.6863H135.959ZM129.981 27.3362V22.5492H132.938V27.3362H129.981ZM139.045 23.7216V22.0282H142.002V23.7216H139.045ZM142.002 22.0282H139.045C139.045 21.073 138.753 20.2914 138.168 19.6836C137.605 19.0757 136.869 18.7718 135.959 18.7718V16.2317C137.129 16.2317 138.157 16.4814 139.045 16.9807C139.955 17.48 140.67 18.1747 141.189 19.0648C141.731 19.9332 142.002 20.921 142.002 22.0282ZM139.175 28.2806L141.937 28.8342C141.807 29.7677 141.471 30.6035 140.929 31.3416C140.388 32.0798 139.706 32.6551 138.883 33.0676C138.06 33.48 137.139 33.6863 136.121 33.6863V31.1137C136.901 31.1137 137.573 30.8857 138.136 30.4298C138.72 29.9522 139.067 29.2358 139.175 28.2806ZM129.981 22.5818C129.981 21.3444 130.241 20.2589 130.761 19.3254C131.303 18.3701 132.017 17.6212 132.905 17.0784C133.815 16.514 134.844 16.2317 135.992 16.2317V18.7718C135.039 18.7718 134.291 19.1083 133.75 19.7813C133.208 20.4325 132.938 21.3661 132.938 22.5818H129.981ZM129.981 27.3362H132.938C132.938 28.5302 133.208 29.4638 133.75 30.1368C134.291 30.788 135.039 31.1137 135.992 31.1137V33.6863C134.844 33.6863 133.815 33.4149 132.905 32.8722C132.017 32.3077 131.303 31.5479 130.761 30.5927C130.241 29.6374 129.981 28.552 129.981 27.3362Z" fill="url(#paint5_linear_4443_200)"/>
<path d="M149.925 33.1652V16.7202H152.882V33.1652H149.925ZM159.054 33.1652V21.9631H162.01V33.1652H159.054ZM159.054 21.9631C159.054 21.0513 158.772 20.3131 158.209 19.7487C157.646 19.1625 156.921 18.8695 156.033 18.8695L156.78 16.2317C157.776 16.2317 158.664 16.4814 159.444 16.9807C160.245 17.48 160.873 18.1639 161.328 19.0323C161.783 19.9007 162.01 20.8776 162.01 21.9631H159.054ZM151.582 22.0282C151.582 20.921 151.809 19.9332 152.264 19.0648C152.719 18.1747 153.336 17.48 154.116 16.9807C154.896 16.4814 155.784 16.2317 156.78 16.2317L156.033 18.8695C155.101 18.8695 154.343 19.1625 153.759 19.7487C153.174 20.3349 152.882 21.0947 152.882 22.0282H151.582Z" fill="#20A9E1"/>
<path d="M169.906 27.5967V15.7758H172.862V27.5967H169.906ZM169.906 15.7758C169.906 14.5818 170.177 13.5289 170.718 12.6171C171.259 11.6836 172.017 10.9671 172.992 10.4678C173.967 9.94679 175.082 9.68628 176.338 9.68628V12.2589C175.255 12.2589 174.4 12.5628 173.772 13.1707C173.165 13.7785 172.862 14.6469 172.862 15.7758H169.906ZM169.906 27.5642H172.862C172.862 28.6931 173.165 29.5723 173.772 30.2019C174.4 30.8098 175.255 31.1137 176.338 31.1137V33.6863C175.082 33.6863 173.967 33.4258 172.992 32.9047C172.017 32.3837 171.259 31.6673 170.718 30.7555C170.177 29.8437 169.906 28.7799 169.906 27.5642ZM180.204 16.6225C180.074 15.2548 179.663 14.191 178.97 13.4312C178.298 12.6496 177.41 12.2589 176.306 12.2589V9.68628C178.147 9.68628 179.641 10.2507 180.789 11.3796C181.958 12.5085 182.662 14.0716 182.9 16.0689L180.204 16.6225ZM180.204 26.7501L182.9 27.2711C182.662 29.2901 181.958 30.864 180.789 31.9929C179.641 33.1218 178.147 33.6863 176.306 33.6863V31.1137C177.41 31.1137 178.298 30.7338 178.97 29.9739C179.663 29.1924 180.074 28.1178 180.204 26.7501Z" fill="url(#paint6_linear_4443_200)"/>
<path d="M185.515 33.1652V9.71884H188.471V33.1652H185.515Z" fill="url(#paint7_linear_4443_200)"/>
<path d="M192.094 25.8382V23.7216H203.172V25.8382H192.094ZM197.129 33.6863V31.1137H197.292V33.6863H197.129ZM191.152 27.3362V22.5492H194.108V27.3362H191.152ZM200.215 23.7216V22.0282H203.172V23.7216H200.215ZM203.172 22.0282H200.215C200.215 21.073 199.923 20.2914 199.338 19.6836C198.775 19.0757 198.039 18.7718 197.129 18.7718V16.2317C198.299 16.2317 199.327 16.4814 200.215 16.9807C201.125 17.48 201.84 18.1747 202.359 19.0648C202.901 19.9332 203.172 20.921 203.172 22.0282ZM200.345 28.2806L203.107 28.8342C202.977 29.7677 202.641 30.6035 202.1 31.3416C201.558 32.0798 200.876 32.6551 200.053 33.0676C199.23 33.48 198.309 33.6863 197.292 33.6863V31.1137C198.071 31.1137 198.743 30.8857 199.306 30.4298C199.89 29.9522 200.237 29.2358 200.345 28.2806ZM191.152 22.5818C191.152 21.3444 191.411 20.2589 191.931 19.3254C192.473 18.3701 193.187 17.6212 194.075 17.0784C194.985 16.514 196.014 16.2317 197.162 16.2317V18.7718C196.209 18.7718 195.461 19.1083 194.92 19.7813C194.379 20.4325 194.108 21.3661 194.108 22.5818H191.152ZM191.152 27.3362H194.108C194.108 28.5302 194.379 29.4638 194.92 30.1368C195.461 30.788 196.209 31.1137 197.162 31.1137V33.6863C196.014 33.6863 194.985 33.4149 194.075 32.8722C193.187 32.3077 192.473 31.5479 191.931 30.5927C191.411 29.6374 191.152 28.552 191.152 27.3362Z" fill="url(#paint8_linear_4443_200)"/>
<path d="M214.298 33.1652V21.9631H217.255V33.1652H214.298ZM210.335 33.6537L210.562 31.2114C211.342 31.2114 212.003 31.016 212.544 30.6252C213.107 30.2344 213.54 29.6591 213.844 28.8993C214.147 28.1395 214.298 27.2385 214.298 26.1965L215.76 26.1313C215.76 27.6076 215.522 28.9102 215.046 30.0391C214.569 31.168 213.919 32.0581 213.096 32.7093C212.295 33.3389 211.375 33.6537 210.335 33.6537ZM210.335 33.6537C209.36 33.6537 208.472 33.4258 207.671 32.9699C206.87 32.514 206.231 31.8952 205.754 31.1137C205.278 30.3104 205.04 29.4203 205.04 28.4434L207.833 28.3457C207.833 29.1707 208.104 29.8545 208.646 30.3973C209.209 30.94 209.848 31.2114 210.562 31.2114L210.335 33.6537ZM205.04 28.4434C205.04 27.4231 205.289 26.533 205.787 25.7731C206.307 24.9916 207 24.3728 207.866 23.9169C208.732 23.461 209.718 23.2331 210.822 23.2331L210.985 25.5126C210.075 25.5126 209.317 25.784 208.711 26.3267C208.126 26.8477 207.833 27.5207 207.833 28.3457L205.04 28.4434ZM210.985 25.5126L210.822 23.2331H215.825V25.5126H210.985ZM214.298 26.1965V21.9956H215.76V26.1313L214.298 26.1965ZM217.255 22.0282H214.298C214.298 21.073 214.006 20.2914 213.421 19.6836C212.858 19.0757 212.122 18.7718 211.212 18.7718V16.2317C212.382 16.2317 213.41 16.4814 214.298 16.9807C215.208 17.48 215.923 18.1747 216.442 19.0648C216.984 19.9332 217.255 20.921 217.255 22.0282ZM208.158 21.6374L205.429 21.0838C205.559 20.1069 205.884 19.2602 206.404 18.5438C206.946 17.8274 207.628 17.2629 208.451 16.8505C209.295 16.438 210.227 16.2317 211.245 16.2317V18.7718C210.443 18.7718 209.75 19.0106 209.165 19.4882C208.602 19.9441 208.267 20.6605 208.158 21.6374Z" fill="url(#paint9_linear_4443_200)"/>
<path d="M219.915 33.1652V16.7202H222.871V33.1652H219.915ZM229.044 33.1652V21.9631H232V33.1652H229.044ZM229.044 21.9631C229.044 21.0513 228.762 20.3131 228.199 19.7487C227.636 19.1625 226.91 18.8695 226.022 18.8695L226.77 16.2317C227.766 16.2317 228.654 16.4814 229.434 16.9807C230.235 17.48 230.863 18.1639 231.318 19.0323C231.773 19.9007 232 20.8776 232 21.9631H229.044ZM221.572 22.0282C221.572 20.921 221.799 19.9332 222.254 19.0648C222.709 18.1747 223.326 17.48 224.106 16.9807C224.885 16.4814 225.773 16.2317 226.77 16.2317L226.022 18.8695C225.091 18.8695 224.333 19.1625 223.748 19.7487C223.164 20.3349 222.871 21.0947 222.871 22.0282H221.572Z" fill="url(#paint10_linear_4443_200)"/>
<defs>
<linearGradient id="paint0_linear_4443_200" x1="67.8921" y1="37.0103" x2="62.2548" y2="28.922" gradientUnits="userSpaceOnUse">
<stop stop-color="#1EA6DE"/>
<stop offset="1" stop-color="#105A78"/>
</linearGradient>
<linearGradient id="paint1_linear_4443_200" x1="68.1373" y1="52.697" x2="2.53408e-07" y2="16.6675" gradientUnits="userSpaceOnUse">
<stop offset="0.165017" stop-color="#7AD060"/>
<stop offset="0.34057" stop-color="#81C540"/>
<stop offset="0.743632" stop-color="#0A8731"/>
</linearGradient>
<linearGradient id="paint2_linear_4443_200" x1="113.269" y1="26.8715" x2="113.269" y2="14.8715" gradientUnits="userSpaceOnUse">
<stop stop-color="#7AD162"/>
<stop offset="1" stop-color="#109738"/>
</linearGradient>
<linearGradient id="paint3_linear_4443_200" x1="113.269" y1="26.8715" x2="113.269" y2="14.8715" gradientUnits="userSpaceOnUse">
<stop stop-color="#7AD162"/>
<stop offset="1" stop-color="#109738"/>
</linearGradient>
<linearGradient id="paint4_linear_4443_200" x1="113.269" y1="26.8715" x2="113.269" y2="14.8715" gradientUnits="userSpaceOnUse">
<stop stop-color="#7AD162"/>
<stop offset="1" stop-color="#109738"/>
</linearGradient>
<linearGradient id="paint5_linear_4443_200" x1="113.269" y1="26.8715" x2="113.269" y2="14.8715" gradientUnits="userSpaceOnUse">
<stop stop-color="#7AD162"/>
<stop offset="1" stop-color="#109738"/>
</linearGradient>
<linearGradient id="paint6_linear_4443_200" x1="113.269" y1="26.8715" x2="113.269" y2="14.8715" gradientUnits="userSpaceOnUse">
<stop stop-color="#7AD162"/>
<stop offset="1" stop-color="#109738"/>
</linearGradient>
<linearGradient id="paint7_linear_4443_200" x1="113.269" y1="26.8715" x2="113.269" y2="14.8715" gradientUnits="userSpaceOnUse">
<stop stop-color="#7AD162"/>
<stop offset="1" stop-color="#109738"/>
</linearGradient>
<linearGradient id="paint8_linear_4443_200" x1="113.269" y1="26.8715" x2="113.269" y2="14.8715" gradientUnits="userSpaceOnUse">
<stop stop-color="#7AD162"/>
<stop offset="1" stop-color="#109738"/>
</linearGradient>
<linearGradient id="paint9_linear_4443_200" x1="113.269" y1="26.8715" x2="113.269" y2="14.8715" gradientUnits="userSpaceOnUse">
<stop stop-color="#7AD162"/>
<stop offset="1" stop-color="#109738"/>
</linearGradient>
<linearGradient id="paint10_linear_4443_200" x1="113.269" y1="26.8715" x2="113.269" y2="14.8715" gradientUnits="userSpaceOnUse">
<stop stop-color="#7AD162"/>
<stop offset="1" stop-color="#109738"/>
</linearGradient>
</defs>
</svg>
