<svg width="253" height="227" viewBox="0 0 253 227" fill="none" xmlns="http://www.w3.org/2000/svg">
<path d="M114 0C113.167 9.16667 117.3 27.9 140.5 29.5C142.333 19.6667 139.6 0 114 0Z" fill="#1BC0F5"/>
<path d="M178.413 8.11724C167.151 10.0636 146.011 21.0413 151.548 49.3807C163.931 48.4194 186.64 38.821 178.413 8.11724Z" fill="#1EA6DE"/>
<path d="M206.534 51.5973C192.534 47.9918 162.451 49.6709 154.115 85.2312C168.895 90.5552 200.072 91.282 206.534 51.5973Z" fill="url(#paint0_linear_3264_38)"/>
<path d="M177 99C157 102.2 134.333 98 125.5 95.5L111.5 92.5L84 83L77 94.5C90.6 113.3 116.667 118.667 128 119C169.6 119.4 184.333 110.5 186.5 106C187.3 102 180.5 99.6667 177 99Z" fill="#0D902C"/>
<path d="M77 30.4838C61.4 33.6838 49.8333 33.8171 46 33.4838C51.2 39.4837 55.5 49.9838 57 54.4839C60.6 67.6839 66.1667 78.9839 68.5 82.9839C84.1 109.384 115 116.984 128.5 117.484C164.1 117.884 181.333 110.317 185.5 106.484C185.5 104.484 180.5 101.651 178 100.484C150.8 102.484 131.333 97.9839 125 95.4839C109.4 87.0839 102.5 69.3172 101 61.4839C127 56.2839 141.833 75.3172 146 85.4838C151.2 29.8838 102.167 25.6505 77 30.4838Z" fill="url(#paint1_linear_3264_38)"/>
<path d="M0 173.836V152.164H5.34243V173.836H0ZM0 152.164C0 149.975 0.489234 148.045 1.4677 146.373C2.44617 144.662 3.81602 143.348 5.57726 142.433C7.33851 141.478 9.35415 141 11.6242 141V145.716C9.66726 145.716 8.12128 146.274 6.98626 147.388C5.89037 148.502 5.34243 150.095 5.34243 152.164H0ZM0 173.776H5.34243C5.34243 175.846 5.89037 177.458 6.98626 178.612C8.12128 179.726 9.66726 180.284 11.6242 180.284V185C9.35415 185 7.33851 184.522 5.57726 183.567C3.81602 182.612 2.44617 181.299 1.4677 179.627C0.489234 177.955 0 176.005 0 173.776ZM18.6104 153.716C18.3756 151.209 17.632 149.259 16.3795 147.866C15.1662 146.433 13.5616 145.716 11.5655 145.716V141C14.8923 141 17.5928 142.035 19.6672 144.104C21.7807 146.174 23.0527 149.04 23.4832 152.701L18.6104 153.716ZM18.6104 172.284L23.4832 173.239C23.0527 176.94 21.7807 179.826 19.6672 181.896C17.5928 183.965 14.8923 185 11.5655 185V180.284C13.5616 180.284 15.1662 179.587 16.3795 178.194C17.632 176.761 18.3756 174.791 18.6104 172.284Z" fill="url(#paint2_linear_3264_38)"/>
<path d="M43.2995 184.045V163.507H48.6419V184.045H43.2995ZM36.1371 184.94L36.548 180.463C37.957 180.463 39.1508 180.104 40.1292 179.388C41.1468 178.672 41.9296 177.617 42.4776 176.224C43.0255 174.831 43.2995 173.179 43.2995 171.269L45.9413 171.149C45.9413 173.856 45.5108 176.244 44.6498 178.313C43.7887 180.383 42.6145 182.015 41.1273 183.209C39.6791 184.363 38.0157 184.94 36.1371 184.94ZM36.1371 184.94C34.3758 184.94 32.7712 184.522 31.323 183.687C29.8749 182.851 28.7203 181.716 27.8593 180.284C26.9982 178.811 26.5677 177.179 26.5677 175.388L31.6166 175.209C31.6166 176.721 32.1058 177.975 33.0843 178.97C34.1019 179.965 35.2565 180.463 36.548 180.463L36.1371 184.94ZM26.5677 175.388C26.5677 173.517 27.0178 171.886 27.918 170.493C28.8573 169.06 30.1097 167.925 31.6753 167.09C33.2408 166.254 35.0216 165.836 37.0177 165.836L37.3113 170.015C35.6674 170.015 34.2976 170.512 33.2017 171.507C32.1449 172.463 31.6166 173.697 31.6166 175.209L26.5677 175.388ZM37.3113 170.015L37.0177 165.836H46.0587V170.015H37.3113ZM43.2995 171.269V163.567H45.9413V171.149L43.2995 171.269ZM48.6419 163.627H43.2995C43.2995 161.876 42.7711 160.443 41.7144 159.328C40.6968 158.214 39.366 157.657 37.7222 157.657V153C39.8357 153 41.6948 153.458 43.2995 154.373C44.9433 155.289 46.2349 156.562 47.1742 158.194C48.1527 159.786 48.6419 161.597 48.6419 163.627ZM32.2037 162.91L27.2722 161.896C27.507 160.104 28.0941 158.552 29.0334 157.239C30.0119 155.925 31.2448 154.891 32.732 154.134C34.2584 153.378 35.9414 153 37.7809 153V157.657C36.3328 157.657 35.0803 158.095 34.0236 158.97C33.006 159.806 32.3993 161.119 32.2037 162.91Z" fill="url(#paint3_linear_3264_38)"/>
<path d="M53.4495 184.045V153.896H58.792V184.045H53.4495ZM56.3849 163.866C56.3849 161.836 56.7176 160.025 57.383 158.433C58.0483 156.801 58.9485 155.527 60.0835 154.612C61.2577 153.697 62.5493 153.239 63.9583 153.239L63.4886 158.313C62.1188 158.313 60.9837 158.851 60.0835 159.925C59.2225 160.96 58.792 162.274 58.792 163.866H56.3849ZM67.0111 159.687C66.5414 159.289 65.9739 158.97 65.3086 158.731C64.6823 158.453 64.0757 158.313 63.4886 158.313L63.9583 153.239C64.8585 153.239 65.7391 153.418 66.6001 153.776C67.4612 154.095 68.2048 154.552 68.8311 155.149L67.0111 159.687Z" fill="url(#paint4_linear_3264_38)"/>
<path d="M70.3405 170.612V166.731H90.3599V170.612H70.3405ZM79.4402 185V180.284H79.7338V185H79.4402ZM68.638 173.358V164.582H73.9804V173.358H68.638ZM85.0175 166.731V163.627H90.3599V166.731H85.0175ZM90.3599 163.627H85.0175C85.0175 161.876 84.4891 160.443 83.4324 159.328C82.4148 158.214 81.0841 157.657 79.4402 157.657V153C81.5537 153 83.4128 153.458 85.0175 154.373C86.6613 155.289 87.9529 156.562 88.8922 158.194C89.8707 159.786 90.3599 161.597 90.3599 163.627ZM85.2523 175.09L90.2425 176.104C90.0077 177.816 89.401 179.348 88.4226 180.701C87.4441 182.055 86.2112 183.109 84.724 183.866C83.2367 184.622 81.5733 185 79.7338 185V180.284C81.1428 180.284 82.3561 179.866 83.3737 179.03C84.4304 178.154 85.0566 176.841 85.2523 175.09ZM68.638 164.642C68.638 162.373 69.1076 160.383 70.0469 158.672C71.0254 156.92 72.317 155.547 73.9217 154.552C75.5655 153.517 77.4246 153 79.4989 153V157.657C77.7768 157.657 76.4266 158.274 75.4481 159.507C74.4696 160.701 73.9804 162.413 73.9804 164.642H68.638ZM68.638 173.358H73.9804C73.9804 175.547 74.4696 177.259 75.4481 178.493C76.4266 179.687 77.7768 180.284 79.4989 180.284V185C77.4246 185 75.5655 184.502 73.9217 183.507C72.317 182.473 71.0254 181.08 70.0469 179.328C69.1076 177.577 68.638 175.587 68.638 173.358Z" fill="url(#paint5_linear_3264_38)"/>
<path d="M104.679 184.045V153.896H110.022V184.045H104.679ZM121.176 184.045V163.507H126.519V184.045H121.176ZM121.176 163.507C121.176 161.836 120.667 160.483 119.65 159.448C118.632 158.373 117.321 157.836 115.716 157.836L117.067 153C118.867 153 120.472 153.458 121.881 154.373C123.329 155.289 124.464 156.542 125.286 158.134C126.108 159.726 126.519 161.517 126.519 163.507H121.176ZM107.673 163.627C107.673 161.597 108.084 159.786 108.906 158.194C109.728 156.562 110.844 155.289 112.253 154.373C113.662 153.458 115.266 153 117.067 153L115.716 157.836C114.033 157.836 112.663 158.373 111.607 159.448C110.55 160.522 110.022 161.915 110.022 163.627H107.673Z" fill="#20A9E1"/>
<path d="M140.787 173.836V152.164H146.129V173.836H140.787ZM140.787 152.164C140.787 149.975 141.276 148.045 142.255 146.373C143.233 144.662 144.603 143.348 146.364 142.433C148.125 141.478 150.141 141 152.411 141V145.716C150.454 145.716 148.908 146.274 147.773 147.388C146.677 148.502 146.129 150.095 146.129 152.164H140.787ZM140.787 173.776H146.129C146.129 175.846 146.677 177.458 147.773 178.612C148.908 179.726 150.454 180.284 152.411 180.284V185C150.141 185 148.125 184.522 146.364 183.567C144.603 182.612 143.233 181.299 142.255 179.627C141.276 177.955 140.787 176.005 140.787 173.776ZM159.397 153.716C159.163 151.209 158.419 149.259 157.166 147.866C155.953 146.433 154.348 145.716 152.352 145.716V141C155.679 141 158.38 142.035 160.454 144.104C162.568 146.174 163.84 149.04 164.27 152.701L159.397 153.716ZM159.397 172.284L164.27 173.239C163.84 176.94 162.568 179.826 160.454 181.896C158.38 183.965 155.679 185 152.352 185V180.284C154.348 180.284 155.953 179.587 157.166 178.194C158.419 176.761 159.163 174.791 159.397 172.284Z" fill="url(#paint6_linear_3264_38)"/>
<path d="M168.994 184.045V141.06H174.337V184.045H168.994Z" fill="url(#paint7_linear_3264_38)"/>
<path d="M180.884 170.612V166.731H200.903V170.612H180.884ZM189.983 185V180.284H190.277V185H189.983ZM179.181 173.358V164.582H184.523V173.358H179.181ZM195.561 166.731V163.627H200.903V166.731H195.561ZM200.903 163.627H195.561C195.561 161.876 195.032 160.443 193.975 159.328C192.958 158.214 191.627 157.657 189.983 157.657V153C192.097 153 193.956 153.458 195.561 154.373C197.204 155.289 198.496 156.562 199.435 158.194C200.414 159.786 200.903 161.597 200.903 163.627ZM195.795 175.09L200.786 176.104C200.551 177.816 199.944 179.348 198.966 180.701C197.987 182.055 196.754 183.109 195.267 183.866C193.78 184.622 192.116 185 190.277 185V180.284C191.686 180.284 192.899 179.866 193.917 179.03C194.974 178.154 195.6 176.841 195.795 175.09ZM179.181 164.642C179.181 162.373 179.651 160.383 180.59 158.672C181.569 156.92 182.86 155.547 184.465 154.552C186.109 153.517 187.968 153 190.042 153V157.657C188.32 157.657 186.97 158.274 185.991 159.507C185.013 160.701 184.523 162.413 184.523 164.642H179.181ZM179.181 173.358H184.523C184.523 175.547 185.013 177.259 185.991 178.493C186.97 179.687 188.32 180.284 190.042 180.284V185C187.968 185 186.109 184.502 184.465 183.507C182.86 182.473 181.569 181.08 180.59 179.328C179.651 177.577 179.181 175.587 179.181 173.358Z" fill="url(#paint8_linear_3264_38)"/>
<path d="M221.011 184.045V163.507H226.353V184.045H221.011ZM213.848 184.94L214.259 180.463C215.668 180.463 216.862 180.104 217.84 179.388C218.858 178.672 219.641 177.617 220.189 176.224C220.737 174.831 221.011 173.179 221.011 171.269L223.652 171.149C223.652 173.856 223.222 176.244 222.361 178.313C221.5 180.383 220.326 182.015 218.838 183.209C217.39 184.363 215.727 184.94 213.848 184.94ZM213.848 184.94C212.087 184.94 210.482 184.522 209.034 183.687C207.586 182.851 206.431 181.716 205.57 180.284C204.709 178.811 204.279 177.179 204.279 175.388L209.328 175.209C209.328 176.721 209.817 177.975 210.795 178.97C211.813 179.965 212.968 180.463 214.259 180.463L213.848 184.94ZM204.279 175.388C204.279 173.517 204.729 171.886 205.629 170.493C206.568 169.06 207.821 167.925 209.386 167.09C210.952 166.254 212.733 165.836 214.729 165.836L215.022 170.015C213.378 170.015 212.009 170.512 210.913 171.507C209.856 172.463 209.328 173.697 209.328 175.209L204.279 175.388ZM215.022 170.015L214.729 165.836H223.77V170.015H215.022ZM221.011 171.269V163.567H223.652V171.149L221.011 171.269ZM226.353 163.627H221.011C221.011 161.876 220.482 160.443 219.425 159.328C218.408 158.214 217.077 157.657 215.433 157.657V153C217.547 153 219.406 153.458 221.011 154.373C222.654 155.289 223.946 156.562 224.885 158.194C225.864 159.786 226.353 161.597 226.353 163.627ZM209.915 162.91L204.983 161.896C205.218 160.104 205.805 158.552 206.744 157.239C207.723 155.925 208.956 154.891 210.443 154.134C211.969 153.378 213.652 153 215.492 153V157.657C214.044 157.657 212.791 158.095 211.735 158.97C210.717 159.806 210.11 161.119 209.915 162.91Z" fill="url(#paint9_linear_3264_38)"/>
<path d="M231.161 184.045V153.896H236.503V184.045H231.161ZM247.658 184.045V163.507H253V184.045H247.658ZM247.658 163.507C247.658 161.836 247.149 160.483 246.131 159.448C245.114 158.373 243.802 157.836 242.198 157.836L243.548 153C245.348 153 246.953 153.458 248.362 154.373C249.81 155.289 250.945 156.542 251.767 158.134C252.589 159.726 253 161.517 253 163.507H247.658ZM234.155 163.627C234.155 161.597 234.566 159.786 235.388 158.194C236.21 156.562 237.325 155.289 238.734 154.373C240.143 153.458 241.748 153 243.548 153L242.198 157.836C240.515 157.836 239.145 158.373 238.088 159.448C237.031 160.522 236.503 161.915 236.503 163.627H234.155Z" fill="url(#paint10_linear_3264_38)"/>
<path d="M13.508 212.296L17.303 201.67H19.718L15.923 212.296H13.508ZM13.485 218V212.296H15.923V218H13.485ZM13.485 212.296L9.69 201.67H12.473L15.923 212.296H13.485ZM26.984 213.538V210.732H29.652V213.538H26.984ZM20.429 213.538V210.732H23.097V213.538H20.429ZM24.96 208.087V205.925H25.144V208.087H24.96ZM24.96 218.345V216.16H25.144V218.345H24.96ZM20.429 210.755C20.429 209.82 20.6284 208.992 21.027 208.271C21.4257 207.55 21.97 206.983 22.66 206.569C23.35 206.14 24.1244 205.925 24.983 205.925V208.087C24.4004 208.087 23.9404 208.325 23.603 208.8C23.2657 209.26 23.097 209.912 23.097 210.755H20.429ZM29.652 210.755H26.984C26.984 209.912 26.8154 209.26 26.478 208.8C26.156 208.325 25.696 208.087 25.098 208.087V205.925C25.972 205.925 26.7464 206.14 27.421 206.569C28.111 206.983 28.6554 207.55 29.054 208.271C29.4527 208.992 29.652 209.82 29.652 210.755ZM20.429 213.515H23.097C23.097 214.343 23.2657 214.995 23.603 215.47C23.9404 215.93 24.4004 216.16 24.983 216.16V218.345C24.1244 218.345 23.35 218.138 22.66 217.724C21.97 217.295 21.4257 216.72 21.027 215.999C20.6284 215.263 20.429 214.435 20.429 213.515ZM29.652 213.515C29.652 214.435 29.4527 215.263 29.054 215.999C28.6554 216.72 28.111 217.295 27.421 217.724C26.7464 218.138 25.972 218.345 25.098 218.345V216.16C25.696 216.16 26.156 215.93 26.478 215.47C26.8154 214.995 26.984 214.343 26.984 213.515H29.652ZM40.6189 206.27V218H37.9509V206.27H40.6189ZM34.0409 206.27V214.044H31.3729V206.27H34.0409ZM34.0409 214.044C34.0409 214.673 34.2172 215.179 34.5699 215.562C34.9226 215.945 35.3749 216.137 35.9269 216.137L35.1909 218.345C34.4702 218.345 33.8186 218.161 33.2359 217.793C32.6686 217.41 32.2162 216.896 31.8789 216.252C31.5416 215.593 31.3729 214.857 31.3729 214.044H34.0409ZM38.9169 213.929C38.9169 214.772 38.7559 215.531 38.4339 216.206C38.1119 216.865 37.6672 217.387 37.0999 217.77C36.5326 218.153 35.8962 218.345 35.1909 218.345L35.9269 216.137C36.5249 216.137 37.0079 215.938 37.3759 215.539C37.7592 215.125 37.9509 214.588 37.9509 213.929H38.9169ZM43.3751 218V206.27H46.0431V218H43.3751ZM45.0771 210.387C45.0771 209.544 45.2075 208.792 45.4681 208.133C45.7288 207.458 46.0815 206.929 46.5261 206.546C46.9708 206.163 47.4768 205.971 48.0441 205.971L47.7681 208.409C47.2621 208.409 46.8481 208.601 46.5261 208.984C46.2041 209.352 46.0431 209.82 46.0431 210.387H45.0771ZM49.1711 208.961C48.9718 208.792 48.7418 208.662 48.4811 208.57C48.2358 208.463 47.9981 208.409 47.7681 208.409L48.0441 205.971C48.4121 205.971 48.7648 206.048 49.1021 206.201C49.4548 206.339 49.7691 206.531 50.0451 206.776L49.1711 208.961ZM56.2677 218V206.27H58.9357V218H56.2677ZM62.8457 218V210.203H65.5137V218H62.8457ZM62.8457 210.226C62.8457 209.582 62.6694 209.068 62.3167 208.685C61.964 208.302 61.5117 208.11 60.9597 208.11L61.6957 205.902C62.4164 205.902 63.0604 206.094 63.6277 206.477C64.2104 206.845 64.6704 207.359 65.0077 208.018C65.345 208.662 65.5137 209.398 65.5137 210.226H62.8457ZM57.9697 210.341C57.9697 209.498 58.1307 208.739 58.4527 208.064C58.79 207.389 59.2347 206.86 59.7867 206.477C60.354 206.094 60.9904 205.902 61.6957 205.902L60.9597 208.11C60.3617 208.11 59.871 208.317 59.4877 208.731C59.1197 209.13 58.9357 209.666 58.9357 210.341H57.9697ZM56.2677 218V201.302H58.9357V218H56.2677ZM74.0226 218V210.203H76.6906V218H74.0226ZM71.2626 218.345L71.6076 216.275C72.0983 216.275 72.52 216.152 72.8726 215.907C73.2406 215.646 73.5243 215.278 73.7236 214.803C73.923 214.328 74.0226 213.768 74.0226 213.124L75.2186 213.009C75.2186 214.036 75.0423 214.956 74.6896 215.769C74.337 216.566 73.8616 217.195 73.2636 217.655C72.681 218.115 72.014 218.345 71.2626 218.345ZM71.2626 218.345C70.542 218.345 69.8903 218.184 69.3076 217.862C68.7403 217.54 68.288 217.103 67.9506 216.551C67.6286 215.984 67.4676 215.347 67.4676 214.642L69.9056 214.527C69.9056 215.033 70.0743 215.455 70.4116 215.792C70.7643 216.114 71.163 216.275 71.6076 216.275L71.2626 218.345ZM67.4676 214.642C67.4676 213.937 67.6516 213.308 68.0196 212.756C68.403 212.204 68.9166 211.767 69.5606 211.445C70.2046 211.108 70.9253 210.939 71.7226 210.939L71.9526 212.779C71.3546 212.779 70.864 212.94 70.4806 213.262C70.0973 213.584 69.9056 214.006 69.9056 214.527L67.4676 214.642ZM71.9526 212.779L71.7226 210.939H74.9886V212.779H71.9526ZM74.0226 213.124V210.318H75.2186V213.009L74.0226 213.124ZM76.6906 210.341H74.0226C74.0226 209.666 73.8386 209.122 73.4706 208.708C73.118 208.294 72.658 208.087 72.0906 208.087V205.902C72.9646 205.902 73.7466 206.094 74.4366 206.477C75.142 206.86 75.694 207.389 76.0926 208.064C76.4913 208.739 76.6906 209.498 76.6906 210.341ZM70.1586 210.019L67.7436 209.559C67.8663 208.823 68.1193 208.187 68.5026 207.65C68.9013 207.098 69.4073 206.669 70.0206 206.362C70.6493 206.055 71.3393 205.902 72.0906 205.902V208.087C71.6 208.087 71.1706 208.248 70.8026 208.57C70.45 208.892 70.2353 209.375 70.1586 210.019ZM78.9982 217.954H81.6662V222.6H78.9982V217.954ZM81.6662 206.27V218H78.9982V206.27H81.6662ZM88.2442 210.226V214.044H85.5762V210.226H88.2442ZM85.5762 214.044H88.2442C88.2442 214.857 88.0755 215.593 87.7382 216.252C87.4008 216.896 86.9408 217.41 86.3582 217.793C85.7908 218.161 85.1468 218.345 84.4262 218.345L83.6902 216.137C84.2422 216.137 84.6945 215.945 85.0472 215.562C85.3998 215.179 85.5762 214.673 85.5762 214.044ZM80.7002 213.929H81.6662C81.6662 214.588 81.8502 215.125 82.2182 215.539C82.6015 215.938 83.0922 216.137 83.6902 216.137L84.4262 218.345C83.7208 218.345 83.0845 218.153 82.5172 217.77C81.9652 217.387 81.5205 216.865 81.1832 216.206C80.8612 215.531 80.7002 214.772 80.7002 213.929ZM85.5762 210.226C85.5762 209.582 85.3998 209.068 85.0472 208.685C84.6945 208.302 84.2422 208.11 83.6902 208.11L84.4262 205.902C85.1468 205.902 85.7908 206.094 86.3582 206.477C86.9408 206.845 87.4008 207.359 87.7382 208.018C88.0755 208.662 88.2442 209.398 88.2442 210.226H85.5762ZM80.7002 210.341C80.7002 209.498 80.8612 208.739 81.1832 208.064C81.5205 207.389 81.9652 206.86 82.5172 206.477C83.0845 206.094 83.7208 205.902 84.4262 205.902L83.6902 208.11C83.0922 208.11 82.6015 208.317 82.2182 208.731C81.8502 209.13 81.6662 209.666 81.6662 210.341H80.7002ZM90.5431 217.954H93.2111V222.6H90.5431V217.954ZM93.2111 206.27V218H90.5431V206.27H93.2111ZM99.7891 210.226V214.044H97.1211V210.226H99.7891ZM97.1211 214.044H99.7891C99.7891 214.857 99.6204 215.593 99.2831 216.252C98.9458 216.896 98.4858 217.41 97.9031 217.793C97.3358 218.161 96.6918 218.345 95.9711 218.345L95.2351 216.137C95.7871 216.137 96.2394 215.945 96.5921 215.562C96.9448 215.179 97.1211 214.673 97.1211 214.044ZM92.2451 213.929H93.2111C93.2111 214.588 93.3951 215.125 93.7631 215.539C94.1464 215.938 94.6371 216.137 95.2351 216.137L95.9711 218.345C95.2658 218.345 94.6294 218.153 94.0621 217.77C93.5101 217.387 93.0654 216.865 92.7281 216.206C92.4061 215.531 92.2451 214.772 92.2451 213.929ZM97.1211 210.226C97.1211 209.582 96.9448 209.068 96.5921 208.685C96.2394 208.302 95.7871 208.11 95.2351 208.11L95.9711 205.902C96.6918 205.902 97.3358 206.094 97.9031 206.477C98.4858 206.845 98.9458 207.359 99.2831 208.018C99.6204 208.662 99.7891 209.398 99.7891 210.226H97.1211ZM92.2451 210.341C92.2451 209.498 92.4061 208.739 92.7281 208.064C93.0654 207.389 93.5101 206.86 94.0621 206.477C94.6294 206.094 95.2658 205.902 95.9711 205.902L95.2351 208.11C94.6371 208.11 94.1464 208.317 93.7631 208.731C93.3951 209.13 93.2111 209.666 93.2111 210.341H92.2451ZM102.318 218V206.27H104.986V218H102.318ZM103.652 204.706C103.192 204.706 102.809 204.56 102.502 204.269C102.211 203.962 102.065 203.579 102.065 203.119C102.065 202.659 102.211 202.276 102.502 201.969C102.809 201.647 103.192 201.486 103.652 201.486C104.112 201.486 104.495 201.647 104.802 201.969C105.124 202.276 105.285 202.659 105.285 203.119C105.285 203.579 105.124 203.962 104.802 204.269C104.495 204.56 104.112 204.706 103.652 204.706ZM107.973 218V206.27H110.641V218H107.973ZM114.551 218V210.203H117.219V218H114.551ZM114.551 210.226C114.551 209.582 114.374 209.068 114.022 208.685C113.669 208.302 113.217 208.11 112.665 208.11L113.401 205.902C114.121 205.902 114.765 206.094 115.333 206.477C115.915 206.845 116.375 207.359 116.713 208.018C117.05 208.662 117.219 209.398 117.219 210.226H114.551ZM109.675 210.341C109.675 209.498 109.836 208.739 110.158 208.064C110.495 207.389 110.94 206.86 111.492 206.477C112.059 206.094 112.695 205.902 113.401 205.902L112.665 208.11C112.067 208.11 111.576 208.317 111.193 208.731C110.825 209.13 110.641 209.666 110.641 210.341H109.675ZM120.116 212.871V211.169H128.097V212.871H120.116ZM123.497 218.368V216.183H123.658V218.368H123.497ZM118.943 213.538V210.732H121.611V213.538H118.943ZM125.429 211.169V210.318H128.097V211.169H125.429ZM128.097 210.341H125.429C125.429 209.666 125.245 209.122 124.877 208.708C124.524 208.294 124.064 208.087 123.497 208.087V205.902C124.371 205.902 125.153 206.094 125.843 206.477C126.548 206.86 127.1 207.389 127.499 208.064C127.897 208.739 128.097 209.498 128.097 210.341ZM125.59 214.251L127.982 214.711C127.874 215.432 127.621 216.068 127.223 216.62C126.839 217.172 126.341 217.601 125.728 217.908C125.114 218.215 124.417 218.368 123.635 218.368V216.183C124.141 216.183 124.57 216.022 124.923 215.7C125.291 215.363 125.513 214.88 125.59 214.251ZM118.943 210.732C118.943 209.812 119.142 208.992 119.541 208.271C119.939 207.535 120.484 206.96 121.174 206.546C121.864 206.117 122.638 205.902 123.497 205.902V208.087C122.914 208.087 122.454 208.317 122.117 208.777C121.779 209.237 121.611 209.889 121.611 210.732H118.943ZM118.943 213.538H121.611C121.611 214.366 121.779 215.018 122.117 215.493C122.454 215.953 122.914 216.183 123.497 216.183V218.368C122.638 218.368 121.864 218.161 121.174 217.747C120.484 217.318 119.939 216.743 119.541 216.022C119.142 215.286 118.943 214.458 118.943 213.538ZM135.661 214.895C135.661 214.558 135.523 214.274 135.247 214.044C134.971 213.814 134.611 213.599 134.166 213.4C133.722 213.201 133.254 213.001 132.763 212.802C132.273 212.587 131.805 212.334 131.36 212.043C130.931 211.752 130.571 211.391 130.279 210.962C130.003 210.533 129.865 210.004 129.865 209.375C129.865 209.375 129.95 209.375 130.118 209.375C130.302 209.375 130.517 209.375 130.762 209.375C131.023 209.375 131.276 209.375 131.521 209.375C131.782 209.375 131.997 209.375 132.165 209.375C132.334 209.375 132.418 209.375 132.418 209.375C132.418 209.712 132.556 209.996 132.832 210.226C133.124 210.456 133.484 210.671 133.913 210.87C134.358 211.054 134.826 211.253 135.316 211.468C135.807 211.667 136.275 211.913 136.719 212.204C137.164 212.495 137.524 212.856 137.8 213.285C138.076 213.714 138.214 214.251 138.214 214.895C138.214 214.895 138.13 214.895 137.961 214.895C137.793 214.895 137.578 214.895 137.317 214.895C137.072 214.895 136.819 214.895 136.558 214.895C136.313 214.895 136.098 214.895 135.914 214.895C135.746 214.895 135.661 214.895 135.661 214.895ZM133.936 218.345V216.183C134.442 216.183 134.856 216.06 135.178 215.815C135.5 215.57 135.661 215.263 135.661 214.895H138.214C138.214 215.585 138.038 216.191 137.685 216.712C137.333 217.233 136.834 217.64 136.19 217.931C135.546 218.207 134.795 218.345 133.936 218.345ZM129.865 209.375C129.865 208.7 130.042 208.102 130.394 207.581C130.747 207.06 131.222 206.653 131.82 206.362C132.434 206.055 133.124 205.902 133.89 205.902V208.064C133.476 208.064 133.124 208.187 132.832 208.432C132.556 208.677 132.418 208.992 132.418 209.375H129.865ZM132.004 214.228C132.081 214.872 132.296 215.363 132.648 215.7C133.016 216.022 133.446 216.183 133.936 216.183V218.345C133.185 218.345 132.495 218.199 131.866 217.908C131.253 217.601 130.747 217.172 130.348 216.62C129.965 216.068 129.712 215.424 129.589 214.688L132.004 214.228ZM135.822 210.019C135.746 209.36 135.523 208.869 135.155 208.547C134.803 208.225 134.373 208.064 133.867 208.064V205.902C134.649 205.902 135.347 206.055 135.96 206.362C136.574 206.653 137.072 207.075 137.455 207.627C137.854 208.164 138.107 208.808 138.214 209.559L135.822 210.019ZM145.814 214.895C145.814 214.558 145.676 214.274 145.4 214.044C145.124 213.814 144.763 213.599 144.319 213.4C143.874 213.201 143.406 213.001 142.916 212.802C142.425 212.587 141.957 212.334 141.513 212.043C141.083 211.752 140.723 211.391 140.432 210.962C140.156 210.533 140.018 210.004 140.018 209.375C140.018 209.375 140.102 209.375 140.271 209.375C140.455 209.375 140.669 209.375 140.915 209.375C141.175 209.375 141.428 209.375 141.674 209.375C141.934 209.375 142.149 209.375 142.318 209.375C142.486 209.375 142.571 209.375 142.571 209.375C142.571 209.712 142.709 209.996 142.985 210.226C143.276 210.456 143.636 210.671 144.066 210.87C144.51 211.054 144.978 211.253 145.469 211.468C145.959 211.667 146.427 211.913 146.872 212.204C147.316 212.495 147.677 212.856 147.953 213.285C148.229 213.714 148.367 214.251 148.367 214.895C148.367 214.895 148.282 214.895 148.114 214.895C147.945 214.895 147.73 214.895 147.47 214.895C147.224 214.895 146.971 214.895 146.711 214.895C146.465 214.895 146.251 214.895 146.067 214.895C145.898 214.895 145.814 214.895 145.814 214.895ZM144.089 218.345V216.183C144.595 216.183 145.009 216.06 145.331 215.815C145.653 215.57 145.814 215.263 145.814 214.895H148.367C148.367 215.585 148.19 216.191 147.838 216.712C147.485 217.233 146.987 217.64 146.343 217.931C145.699 218.207 144.947 218.345 144.089 218.345ZM140.018 209.375C140.018 208.7 140.194 208.102 140.547 207.581C140.899 207.06 141.375 206.653 141.973 206.362C142.586 206.055 143.276 205.902 144.043 205.902V208.064C143.629 208.064 143.276 208.187 142.985 208.432C142.709 208.677 142.571 208.992 142.571 209.375H140.018ZM142.157 214.228C142.233 214.872 142.448 215.363 142.801 215.7C143.169 216.022 143.598 216.183 144.089 216.183V218.345C143.337 218.345 142.647 218.199 142.019 217.908C141.405 217.601 140.899 217.172 140.501 216.62C140.117 216.068 139.864 215.424 139.742 214.688L142.157 214.228ZM145.975 210.019C145.898 209.36 145.676 208.869 145.308 208.547C144.955 208.225 144.526 208.064 144.02 208.064V205.902C144.802 205.902 145.499 206.055 146.113 206.362C146.726 206.653 147.224 207.075 147.608 207.627C148.006 208.164 148.259 208.808 148.367 209.559L145.975 210.019ZM151.938 218.184C151.478 218.184 151.095 218.038 150.788 217.747C150.497 217.44 150.351 217.057 150.351 216.597C150.351 216.137 150.497 215.754 150.788 215.447C151.095 215.125 151.478 214.964 151.938 214.964C152.398 214.964 152.782 215.125 153.088 215.447C153.41 215.754 153.571 216.137 153.571 216.597C153.571 217.057 153.41 217.44 153.088 217.747C152.782 218.038 152.398 218.184 151.938 218.184ZM166.579 213.538V210.732H169.247V213.538H166.579ZM160.024 213.538V210.732H162.692V213.538H160.024ZM164.555 208.087V205.925H164.739V208.087H164.555ZM164.555 218.345V216.16H164.739V218.345H164.555ZM160.024 210.755C160.024 209.82 160.223 208.992 160.622 208.271C161.02 207.55 161.565 206.983 162.255 206.569C162.945 206.14 163.719 205.925 164.578 205.925V208.087C163.995 208.087 163.535 208.325 163.198 208.8C162.86 209.26 162.692 209.912 162.692 210.755H160.024ZM169.247 210.755H166.579C166.579 209.912 166.41 209.26 166.073 208.8C165.751 208.325 165.291 208.087 164.693 208.087V205.925C165.567 205.925 166.341 206.14 167.016 206.569C167.706 206.983 168.25 207.55 168.649 208.271C169.047 208.992 169.247 209.82 169.247 210.755ZM160.024 213.515H162.692C162.692 214.343 162.86 214.995 163.198 215.47C163.535 215.93 163.995 216.16 164.578 216.16V218.345C163.719 218.345 162.945 218.138 162.255 217.724C161.565 217.295 161.02 216.72 160.622 215.999C160.223 215.263 160.024 214.435 160.024 213.515ZM169.247 213.515C169.247 214.435 169.047 215.263 168.649 215.999C168.25 216.72 167.706 217.295 167.016 217.724C166.341 218.138 165.567 218.345 164.693 218.345V216.16C165.291 216.16 165.751 215.93 166.073 215.47C166.41 214.995 166.579 214.343 166.579 213.515H169.247ZM180.214 206.27V218H177.546V206.27H180.214ZM173.636 206.27V214.044H170.968V206.27H173.636ZM173.636 214.044C173.636 214.673 173.812 215.179 174.165 215.562C174.517 215.945 174.97 216.137 175.522 216.137L174.786 218.345C174.065 218.345 173.413 218.161 172.831 217.793C172.263 217.41 171.811 216.896 171.474 216.252C171.136 215.593 170.968 214.857 170.968 214.044H173.636ZM178.512 213.929C178.512 214.772 178.351 215.531 178.029 216.206C177.707 216.865 177.262 217.387 176.695 217.77C176.127 218.153 175.491 218.345 174.786 218.345L175.522 216.137C176.12 216.137 176.603 215.938 176.971 215.539C177.354 215.125 177.546 214.588 177.546 213.929H178.512ZM182.97 218V206.27H185.638V218H182.97ZM184.672 210.387C184.672 209.544 184.802 208.792 185.063 208.133C185.324 207.458 185.676 206.929 186.121 206.546C186.566 206.163 187.072 205.971 187.639 205.971L187.363 208.409C186.857 208.409 186.443 208.601 186.121 208.984C185.799 209.352 185.638 209.82 185.638 210.387H184.672ZM188.766 208.961C188.567 208.792 188.337 208.662 188.076 208.57C187.831 208.463 187.593 208.409 187.363 208.409L187.639 205.971C188.007 205.971 188.36 206.048 188.697 206.201C189.05 206.339 189.364 206.531 189.64 206.776L188.766 208.961ZM195.862 217.954H198.53V222.6H195.862V217.954ZM198.53 206.27V218H195.862V206.27H198.53ZM205.108 210.226V214.044H202.44V210.226H205.108ZM202.44 214.044H205.108C205.108 214.857 204.94 215.593 204.602 216.252C204.265 216.896 203.805 217.41 203.222 217.793C202.655 218.161 202.011 218.345 201.29 218.345L200.554 216.137C201.106 216.137 201.559 215.945 201.911 215.562C202.264 215.179 202.44 214.673 202.44 214.044ZM197.564 213.929H198.53C198.53 214.588 198.714 215.125 199.082 215.539C199.466 215.938 199.956 216.137 200.554 216.137L201.29 218.345C200.585 218.345 199.949 218.153 199.381 217.77C198.829 217.387 198.385 216.865 198.047 216.206C197.725 215.531 197.564 214.772 197.564 213.929ZM202.44 210.226C202.44 209.582 202.264 209.068 201.911 208.685C201.559 208.302 201.106 208.11 200.554 208.11L201.29 205.902C202.011 205.902 202.655 206.094 203.222 206.477C203.805 206.845 204.265 207.359 204.602 208.018C204.94 208.662 205.108 209.398 205.108 210.226H202.44ZM197.564 210.341C197.564 209.498 197.725 208.739 198.047 208.064C198.385 207.389 198.829 206.86 199.381 206.477C199.949 206.094 200.585 205.902 201.29 205.902L200.554 208.11C199.956 208.11 199.466 208.317 199.082 208.731C198.714 209.13 198.53 209.666 198.53 210.341H197.564ZM207.407 218V206.27H210.075V218H207.407ZM209.109 210.387C209.109 209.544 209.24 208.792 209.5 208.133C209.761 207.458 210.114 206.929 210.558 206.546C211.003 206.163 211.509 205.971 212.076 205.971L211.8 208.409C211.294 208.409 210.88 208.601 210.558 208.984C210.236 209.352 210.075 209.82 210.075 210.387H209.109ZM213.203 208.961C213.004 208.792 212.774 208.662 212.513 208.57C212.268 208.463 212.03 208.409 211.8 208.409L212.076 205.971C212.444 205.971 212.797 206.048 213.134 206.201C213.487 206.339 213.801 206.531 214.077 206.776L213.203 208.961ZM215.858 218V206.27H218.526V218H215.858ZM217.192 204.706C216.732 204.706 216.349 204.56 216.042 204.269C215.751 203.962 215.605 203.579 215.605 203.119C215.605 202.659 215.751 202.276 216.042 201.969C216.349 201.647 216.732 201.486 217.192 201.486C217.652 201.486 218.035 201.647 218.342 201.969C218.664 202.276 218.825 202.659 218.825 203.119C218.825 203.579 218.664 203.962 218.342 204.269C218.035 204.56 217.652 204.706 217.192 204.706ZM230.302 206.293H227.634V201.67H230.302V206.293ZM227.634 218V206.27H230.302V218H227.634ZM221.056 214.044V210.226H223.724V214.044H221.056ZM223.724 210.226H221.056C221.056 209.398 221.224 208.662 221.562 208.018C221.899 207.359 222.351 206.845 222.919 206.477C223.501 206.094 224.153 205.902 224.874 205.902L225.61 208.11C225.058 208.11 224.605 208.302 224.253 208.685C223.9 209.068 223.724 209.582 223.724 210.226ZM228.6 210.341H227.634C227.634 209.666 227.442 209.13 227.059 208.731C226.691 208.317 226.208 208.11 225.61 208.11L224.874 205.902C225.579 205.902 226.215 206.094 226.783 206.477C227.35 206.86 227.795 207.389 228.117 208.064C228.439 208.739 228.6 209.498 228.6 210.341ZM223.724 214.044C223.724 214.673 223.9 215.179 224.253 215.562C224.605 215.945 225.058 216.137 225.61 216.137L224.874 218.345C224.153 218.345 223.501 218.161 222.919 217.793C222.351 217.41 221.899 216.896 221.562 216.252C221.224 215.593 221.056 214.857 221.056 214.044H223.724ZM228.6 213.929C228.6 214.772 228.439 215.531 228.117 216.206C227.795 216.865 227.35 217.387 226.783 217.77C226.215 218.153 225.579 218.345 224.874 218.345L225.61 216.137C226.208 216.137 226.691 215.938 227.059 215.539C227.442 215.125 227.634 214.588 227.634 213.929H228.6ZM233.543 212.871V211.169H241.524V212.871H233.543ZM236.924 218.368V216.183H237.085V218.368H236.924ZM232.37 213.538V210.732H235.038V213.538H232.37ZM238.856 211.169V210.318H241.524V211.169H238.856ZM241.524 210.341H238.856C238.856 209.666 238.672 209.122 238.304 208.708C237.952 208.294 237.492 208.087 236.924 208.087V205.902C237.798 205.902 238.58 206.094 239.27 206.477C239.976 206.86 240.528 207.389 240.926 208.064C241.325 208.739 241.524 209.498 241.524 210.341ZM239.017 214.251L241.409 214.711C241.302 215.432 241.049 216.068 240.65 216.62C240.267 217.172 239.769 217.601 239.155 217.908C238.542 218.215 237.844 218.368 237.062 218.368V216.183C237.568 216.183 237.998 216.022 238.35 215.7C238.718 215.363 238.941 214.88 239.017 214.251ZM232.37 210.732C232.37 209.812 232.57 208.992 232.968 208.271C233.367 207.535 233.911 206.96 234.601 206.546C235.291 206.117 236.066 205.902 236.924 205.902V208.087C236.342 208.087 235.882 208.317 235.544 208.777C235.207 209.237 235.038 209.889 235.038 210.732H232.37ZM232.37 213.538H235.038C235.038 214.366 235.207 215.018 235.544 215.493C235.882 215.953 236.342 216.183 236.924 216.183V218.368C236.066 218.368 235.291 218.161 234.601 217.747C233.911 217.318 233.367 216.743 232.968 216.022C232.57 215.286 232.37 214.458 232.37 213.538Z" fill="#1EA6DE"/>
<defs>
<linearGradient id="paint0_linear_3264_38" x1="184.5" y1="75.5" x2="173" y2="59" gradientUnits="userSpaceOnUse">
<stop stop-color="#1EA6DE"/>
<stop offset="1" stop-color="#105A78"/>
</linearGradient>
<linearGradient id="paint1_linear_3264_38" x1="185" y1="107.5" x2="46" y2="34" gradientUnits="userSpaceOnUse">
<stop offset="0.165017" stop-color="#7AD060"/>
<stop offset="0.34057" stop-color="#81C540"/>
<stop offset="0.743632" stop-color="#0A8731"/>
</linearGradient>
<linearGradient id="paint2_linear_3264_38" x1="38.4365" y1="172.506" x2="38.4365" y2="150.506" gradientUnits="userSpaceOnUse">
<stop stop-color="#7AD162"/>
<stop offset="1" stop-color="#109738"/>
</linearGradient>
<linearGradient id="paint3_linear_3264_38" x1="38.4365" y1="172.506" x2="38.4365" y2="150.506" gradientUnits="userSpaceOnUse">
<stop stop-color="#7AD162"/>
<stop offset="1" stop-color="#109738"/>
</linearGradient>
<linearGradient id="paint4_linear_3264_38" x1="38.4365" y1="172.506" x2="38.4365" y2="150.506" gradientUnits="userSpaceOnUse">
<stop stop-color="#7AD162"/>
<stop offset="1" stop-color="#109738"/>
</linearGradient>
<linearGradient id="paint5_linear_3264_38" x1="38.4365" y1="172.506" x2="38.4365" y2="150.506" gradientUnits="userSpaceOnUse">
<stop stop-color="#7AD162"/>
<stop offset="1" stop-color="#109738"/>
</linearGradient>
<linearGradient id="paint6_linear_3264_38" x1="38.4365" y1="172.506" x2="38.4365" y2="150.506" gradientUnits="userSpaceOnUse">
<stop stop-color="#7AD162"/>
<stop offset="1" stop-color="#109738"/>
</linearGradient>
<linearGradient id="paint7_linear_3264_38" x1="38.4365" y1="172.506" x2="38.4365" y2="150.506" gradientUnits="userSpaceOnUse">
<stop stop-color="#7AD162"/>
<stop offset="1" stop-color="#109738"/>
</linearGradient>
<linearGradient id="paint8_linear_3264_38" x1="38.4365" y1="172.506" x2="38.4365" y2="150.506" gradientUnits="userSpaceOnUse">
<stop stop-color="#7AD162"/>
<stop offset="1" stop-color="#109738"/>
</linearGradient>
<linearGradient id="paint9_linear_3264_38" x1="38.4365" y1="172.506" x2="38.4365" y2="150.506" gradientUnits="userSpaceOnUse">
<stop stop-color="#7AD162"/>
<stop offset="1" stop-color="#109738"/>
</linearGradient>
<linearGradient id="paint10_linear_3264_38" x1="38.4365" y1="172.506" x2="38.4365" y2="150.506" gradientUnits="userSpaceOnUse">
<stop stop-color="#7AD162"/>
<stop offset="1" stop-color="#109738"/>
</linearGradient>
</defs>
</svg>
